<svg id="App-Store" xmlns="http://www.w3.org/2000/svg" width="179.749" height="60.85" viewBox="0 0 179.749 60.85">
  <path id="background" d="M6.3,0H171.447a7.308,7.308,0,0,1,7.3,7.3V53.548a7.308,7.308,0,0,1-7.3,7.3H6.3a7.308,7.308,0,0,1-7.3-7.3V7.3A7.308,7.308,0,0,1,6.3,0Z" transform="translate(1)" fill="#fff"/>
  <g id="icon" transform="translate(15.94 10.71)">
    <path id="Fill-2" d="M23.383,78.286a7.847,7.847,0,0,1,3.724-6.572,8.072,8.072,0,0,0-6.316-3.42c-2.653-.28-5.233,1.594-6.584,1.594-1.375,0-3.468-1.558-5.708-1.521a8.392,8.392,0,0,0-7.071,4.32C-1.627,77.982.649,85.77,3.582,90.054,5.055,92.147,6.759,94.5,9.01,94.411c2.191-.085,3.018-1.4,5.659-1.4s3.4,1.4,5.683,1.351c2.361-.037,3.834-2.105,5.257-4.223a17.167,17.167,0,0,0,2.4-4.892,7.59,7.59,0,0,1-4.625-6.961" transform="translate(0.023 -59.958)"/>
    <path id="Fill-3" d="M119.551,5.525A7.721,7.721,0,0,0,121.316,0a7.829,7.829,0,0,0-5.075,2.629,7.4,7.4,0,0,0-1.813,5.318,6.486,6.486,0,0,0,5.124-2.422" transform="translate(-100.466)"/>
  </g>
  <g id="Group_24" data-name="Group 24" transform="translate(55.969 26.628)">
    <path id="Fill-4" d="M15.064,20.875H12l-1.679-5.282H4.476L2.882,20.875H-.1L5.681,2.9H9.259Zm-5.245-7.5L8.3,8.693c-.158-.487-.462-1.606-.9-3.383H7.336c-.183.767-.462,1.9-.852,3.383l-1.5,4.685Z" transform="translate(0.1 -2.644)"/>
    <path id="Fill-5" d="M156.486,48.5a7.3,7.3,0,0,1-1.8,5.221,5.247,5.247,0,0,1-3.992,1.7,4,4,0,0,1-3.7-1.838v6.8H144.11V46.427c0-1.387-.037-2.8-.11-4.259h2.531l.158,2.057h.049a5.111,5.111,0,0,1,8.19-.511A7.05,7.05,0,0,1,156.486,48.5Zm-2.933.1a5.291,5.291,0,0,0-.852-3.116,2.95,2.95,0,0,0-2.507-1.278,3.058,3.058,0,0,0-1.935.706,3.259,3.259,0,0,0-1.132,1.85,3.94,3.94,0,0,0-.134.876V49.8a3.484,3.484,0,0,0,.864,2.385,2.876,2.876,0,0,0,2.251.974,2.971,2.971,0,0,0,2.531-1.254A5.5,5.5,0,0,0,153.553,48.593Z" transform="translate(-126.463 -36.898)"/>
    <path id="Fill-6" d="M278.886,48.5a7.3,7.3,0,0,1-1.8,5.221,5.247,5.247,0,0,1-3.992,1.7,4,4,0,0,1-3.7-1.838v6.8H266.51V46.427c0-1.387-.037-2.8-.11-4.259h2.531l.158,2.057h.049a5.111,5.111,0,0,1,8.19-.511A7.05,7.05,0,0,1,278.886,48.5Zm-2.933.1a5.291,5.291,0,0,0-.852-3.116,2.95,2.95,0,0,0-2.507-1.278,3.058,3.058,0,0,0-1.935.706,3.325,3.325,0,0,0-1.132,1.85,3.94,3.94,0,0,0-.134.876V49.8a3.484,3.484,0,0,0,.864,2.385,2.876,2.876,0,0,0,2.251.974,2.956,2.956,0,0,0,2.531-1.254A5.416,5.416,0,0,0,275.953,48.593Z" transform="translate(-233.967 -36.898)"/>
    <path id="Fill-7" d="M425.635,13.992a4.813,4.813,0,0,1-1.594,3.736,7.076,7.076,0,0,1-4.892,1.57,8.561,8.561,0,0,1-4.649-1.12l.669-2.4a8.084,8.084,0,0,0,4.162,1.12,3.92,3.92,0,0,0,2.531-.73,2.385,2.385,0,0,0,.913-1.959,2.534,2.534,0,0,0-.742-1.838,6.949,6.949,0,0,0-2.483-1.387c-3.176-1.18-4.746-2.9-4.746-5.148a4.566,4.566,0,0,1,1.667-3.627A6.613,6.613,0,0,1,420.889.8a8.684,8.684,0,0,1,4.077.852l-.73,2.337a7.183,7.183,0,0,0-3.456-.828,3.586,3.586,0,0,0-2.385.742,2.16,2.16,0,0,0-.718,1.631,2.185,2.185,0,0,0,.828,1.752,9.284,9.284,0,0,0,2.617,1.387,8.773,8.773,0,0,1,3.408,2.191,4.554,4.554,0,0,1,1.107,3.128" transform="translate(-364.044 -0.8)"/>
    <path id="Fill-8" d="M527.486,22.991H524.31v6.292c0,1.594.56,2.4,1.679,2.4a5.342,5.342,0,0,0,1.278-.134l.085,2.191a6.679,6.679,0,0,1-2.239.316,3.446,3.446,0,0,1-2.665-1.047,5.08,5.08,0,0,1-.961-3.493V22.979H519.6V20.825h1.886V18.452l2.823-.852v3.225h3.176v2.166" transform="translate(-456.353 -15.555)"/>
    <path id="Fill-9" d="M610.193,48.633a7.119,7.119,0,0,1-1.7,4.9,6.1,6.1,0,0,1-4.746,1.972,5.841,5.841,0,0,1-4.552-1.886,6.852,6.852,0,0,1-1.692-4.771,7.069,7.069,0,0,1,1.74-4.929A6.073,6.073,0,0,1,603.95,42a5.922,5.922,0,0,1,4.588,1.9,6.765,6.765,0,0,1,1.655,4.734Zm-2.982.061a5.809,5.809,0,0,0-.767-3.055,2.987,2.987,0,0,0-5.233,0,6.59,6.59,0,0,0,0,6.17,2.956,2.956,0,0,0,5.209-.024A5.9,5.9,0,0,0,607.212,48.693Z" transform="translate(-524.773 -36.986)"/>
    <path id="Fill-10" d="M728.649,44.7a5.335,5.335,0,0,0-.913-.073,2.717,2.717,0,0,0-2.349,1.144,4.342,4.342,0,0,0-.718,2.556v6.8h-2.884V46.245c0-1.5-.024-2.86-.085-4.077h2.507l.11,2.483h.085a4.418,4.418,0,0,1,1.436-2.057,3.5,3.5,0,0,1,2.081-.694,6.061,6.061,0,0,1,.718.049l.012,2.75" transform="translate(-633.858 -36.898)"/>
    <path id="Fill-11" d="M801.425,47.77a6.585,6.585,0,0,1-.11,1.3h-8.641a3.757,3.757,0,0,0,1.254,2.933,4.315,4.315,0,0,0,2.823.9,9.7,9.7,0,0,0,3.493-.608l.45,2a10.814,10.814,0,0,1-4.345.8,6.3,6.3,0,0,1-4.734-1.777,6.56,6.56,0,0,1-1.716-4.758,7.436,7.436,0,0,1,1.606-4.88,5.514,5.514,0,0,1,4.527-2.081,4.809,4.809,0,0,1,4.235,2.081A7.04,7.04,0,0,1,801.425,47.77Zm-2.75-.742a3.88,3.88,0,0,0-.56-2.215,2.513,2.513,0,0,0-2.288-1.2,2.735,2.735,0,0,0-2.288,1.168,4.328,4.328,0,0,0-.852,2.239Z" transform="translate(-693.758 -36.635)"/>
  </g>
  <g id="Available-on-the" transform="translate(57.04 11.16)">
    <path id="Fill-12" d="M7.16,13.335H5.651l-.828-2.592H1.951L1.16,13.335H-.3L2.536,4.5H4.288ZM4.568,9.648,3.826,7.336c-.073-.231-.219-.791-.45-1.667H3.351c-.1.377-.219.925-.426,1.667l-.73,2.312Z" transform="translate(0.3 -4.038)"/>
    <path id="Fill-13" d="M75.221,24.7l-2.41,6.377H71.437L69.1,24.7h1.521L71.7,28.071c.183.56.341,1.1.462,1.606H72.2c.11-.462.268-1,.462-1.606L73.737,24.7h1.485" transform="translate(-60.654 -21.779)"/>
    <path id="Fill-14" d="M133.055,30.287l-.11-.73h-.037a2.19,2.19,0,0,1-1.862.876,1.849,1.849,0,0,1-1.947-1.874c0-1.57,1.363-2.385,3.724-2.385v-.122c0-.84-.45-1.254-1.327-1.254a2.972,2.972,0,0,0-1.667.475l-.292-.925a4.091,4.091,0,0,1,2.191-.548c1.667,0,2.507.876,2.507,2.641V28.79a8.482,8.482,0,0,0,.1,1.521l-1.278-.024Zm-.195-3.176c-1.57,0-2.361.377-2.361,1.29a.9.9,0,0,0,.974,1,1.354,1.354,0,0,0,1.387-1.3Z" transform="translate(-113.352 -20.989)"/>
    <path id="Fill-15" d="M191.14,3.892a.829.829,0,0,1-.84-.852.864.864,0,0,1,1.728,0A.828.828,0,0,1,191.14,3.892Zm-.682,1.047h1.412V11.3h-1.412Z" transform="translate(-167.104 -2.017)"/>
    <path id="Fill-16" d="M223.9.7h1.412V9.986H223.9Z" transform="translate(-196.615 -0.7)"/>
    <path id="Fill-17" d="M256.355,30.2l-.11-.73h-.036a2.19,2.19,0,0,1-1.862.876,1.849,1.849,0,0,1-1.947-1.874c0-1.57,1.363-2.385,3.724-2.385v-.122c0-.84-.45-1.254-1.327-1.254a2.972,2.972,0,0,0-1.667.475l-.292-.937a4.091,4.091,0,0,1,2.191-.548c1.667,0,2.507.876,2.507,2.641V28.69a10.06,10.06,0,0,0,.085,1.521h-1.266Zm-.195-3.176c-1.57,0-2.361.377-2.361,1.29a.9.9,0,0,0,.974,1,1.354,1.354,0,0,0,1.387-1.3Z" transform="translate(-221.647 -20.901)"/>
    <path id="Fill-18" d="M317.822,10.144a2.168,2.168,0,0,1-2.008-1.132h-.024L315.7,10h-1.2c.037-.511.049-1.083.049-1.716V.7h1.424V4.558H316A2.189,2.189,0,0,1,318.029,3.5c1.533,0,2.6,1.314,2.6,3.225C320.634,8.7,319.441,10.144,317.822,10.144Zm-.292-5.537A1.625,1.625,0,0,0,315.973,6.3v1.12a1.556,1.556,0,0,0,1.533,1.594c1.059,0,1.692-.864,1.692-2.239,0-1.29-.657-2.166-1.667-2.166Z" transform="translate(-276.189 -0.7)"/>
    <path id="Fill-19" d="M382.1.7h1.412V9.986H382.1Z" transform="translate(-335.562 -0.7)"/>
    <path id="Fill-20" d="M416.51,27.175h-4.247a1.828,1.828,0,0,0,2.008,1.886,4.787,4.787,0,0,0,1.716-.3l.219.986a5.161,5.161,0,0,1-2.13.389A2.957,2.957,0,0,1,410.9,26.92c0-1.947,1.2-3.42,3.018-3.42,1.619,0,2.653,1.2,2.653,3.03A2.467,2.467,0,0,1,416.51,27.175Zm-1.29-1.01c0-.986-.5-1.679-1.4-1.679a1.679,1.679,0,0,0-1.546,1.679Z" transform="translate(-360.857 -20.725)"/>
    <path id="Fill-21" d="M505.367,30.345a3.029,3.029,0,0,1-3.067-3.274,3.1,3.1,0,0,1,3.176-3.371,3.006,3.006,0,0,1,3.067,3.262A3.125,3.125,0,0,1,505.367,30.345Zm.061-5.61c-1.022,0-1.679.961-1.679,2.288s.669,2.264,1.667,2.264,1.667-1.022,1.667-2.3S506.426,24.734,505.428,24.734Z" transform="translate(-441.134 -20.901)"/>
    <path id="Fill-22" d="M575.874,30.111h-1.412V26.448c0-1.132-.438-1.692-1.29-1.692a1.464,1.464,0,0,0-1.412,1.558V30.1h-1.412V25.559c0-.56-.012-1.168-.049-1.825h1.241l.061.986h.036a2.291,2.291,0,0,1,2.02-1.12c1.339,0,2.215,1.022,2.215,2.69v3.821" transform="translate(-500.859 -20.813)"/>
    <path id="Fill-23" d="M664.358,14.353H662.8v3.091c0,.791.28,1.18.828,1.18a3.1,3.1,0,0,0,.633-.061l.036,1.071a3.067,3.067,0,0,1-1.1.158c-1.12,0-1.777-.621-1.777-2.227V14.353H660.5V13.294h.925V12.126l1.387-.426v1.582h1.558v1.071" transform="translate(-580.081 -10.361)"/>
    <path id="Fill-24" d="M713.925,10h-1.412V6.359c0-1.144-.438-1.716-1.29-1.716a1.387,1.387,0,0,0-1.412,1.509V9.986H708.4V.7h1.412V4.521h.024a2.141,2.141,0,0,1,1.911-1.034c1.351,0,2.178,1.047,2.178,2.714V10" transform="translate(-622.152 -0.7)"/>
    <path id="Fill-25" d="M772.71,27.175h-4.247a1.828,1.828,0,0,0,2.008,1.886,4.787,4.787,0,0,0,1.716-.3l.219.986a5.161,5.161,0,0,1-2.13.389A2.957,2.957,0,0,1,767.1,26.92c0-1.947,1.2-3.42,3.018-3.42,1.619,0,2.653,1.2,2.653,3.03A2.466,2.466,0,0,1,772.71,27.175Zm-1.29-1.01c0-.986-.5-1.679-1.4-1.679a1.67,1.67,0,0,0-1.546,1.679Z" transform="translate(-673.708 -20.725)"/>
  </g>
</svg>
