<svg id="Group_67620" data-name="Group 67620" xmlns="http://www.w3.org/2000/svg" width="15.963" height="15.963" viewBox="0 0 15.963 15.963">
  <path id="Path_76" data-name="Path 76" d="M12.637,1.33h-.665V.665a.665.665,0,1,0-1.33,0V1.33H5.321V.665a.665.665,0,1,0-1.33,0V1.33H3.326A3.33,3.33,0,0,0,0,4.656v7.981a3.33,3.33,0,0,0,3.326,3.326h9.312a3.33,3.33,0,0,0,3.326-3.326V4.656A3.33,3.33,0,0,0,12.637,1.33ZM1.33,4.656a2,2,0,0,1,2-2h9.312a2,2,0,0,1,2,2v.665H1.33Zm11.307,9.977H3.326a2,2,0,0,1-2-2V6.651h13.3v5.986A2,2,0,0,1,12.637,14.633Z" fill="#0080f9"/>
  <circle id="Ellipse_5" data-name="Ellipse 5" cx="0.998" cy="0.998" r="0.998" transform="translate(6.984 8.979)" fill="#0080f9"/>
  <circle id="Ellipse_6" data-name="Ellipse 6" cx="0.998" cy="0.998" r="0.998" transform="translate(3.658 8.979)" fill="#0080f9"/>
  <circle id="Ellipse_7" data-name="Ellipse 7" cx="0.998" cy="0.998" r="0.998" transform="translate(10.309 8.979)" fill="#0080f9"/>
</svg>
