<svg xmlns="http://www.w3.org/2000/svg" xmlns:xlink="http://www.w3.org/1999/xlink" width="249.771" height="67.012" viewBox="0 0 249.771 67.012">
  <defs>
    <clipPath id="clip-path">
      <rect id="Rectangle_12" data-name="Rectangle 12" width="249.771" height="67.012" fill="none"/>
    </clipPath>
  </defs>
  <g id="Group_41" data-name="Group 41" clip-path="url(#clip-path)">
    <path id="Path_12" data-name="Path 12" d="M136.841,118.431a4.206,4.206,0,1,0,4.215,3.949,4.135,4.135,0,0,0-4.215-3.949m-.162,6.16a2.011,2.011,0,0,1-1.835-2,1.905,1.905,0,0,1,1.992-1.908,1.926,1.926,0,0,1,1.98,2.01,2,2,0,0,1-2.137,1.9" transform="translate(-104.029 -92.914)" fill="#fff"/>
    <path id="Path_13" data-name="Path 13" d="M192.291,154.223a3.783,3.783,0,0,0-3.78,3.592,3.8,3.8,0,1,0,7.586.223,3.739,3.739,0,0,0-3.807-3.815m.181,5.605a1.762,1.762,0,0,1-1.917-1.753,1.7,1.7,0,0,1,1.621-1.813,1.759,1.759,0,0,1,1.927,1.812,1.839,1.839,0,0,1-1.631,1.754" transform="translate(-147.892 -120.996)" fill="#fff"/>
    <path id="Path_14" data-name="Path 14" d="M80.044,164.064a3.582,3.582,0,1,0,4,3.281,3.589,3.589,0,0,0-4-3.281m.446,5.27a1.68,1.68,0,1,1-.035-3.358,1.68,1.68,0,0,1,.035,3.358" transform="translate(-60.279 -128.703)" fill="#fff"/>
    <path id="Path_15" data-name="Path 15" d="M87.322,83.5H53.7a5.084,5.084,0,0,0-5.079,5.079V122.2a5.084,5.084,0,0,0,5.079,5.079h8.137v-1.914q0,.95,0,1.9a6.307,6.307,0,0,0,.2,2.226,5.044,5.044,0,0,0,.656,1.339,6.154,6.154,0,0,0,1.188,1.088,3.136,3.136,0,0,0,1.635.593,8.689,8.689,0,0,0,1.463-.084A3.157,3.157,0,0,0,68.6,131.7a4.25,4.25,0,0,0,1.72-3.487c.023-1.341.019-2.684,0-4.025-.041-2.651.115-5.3-.085-7.952a7.161,7.161,0,0,0-.21-1.218,8.208,8.208,0,0,0-.452-1.4,9.056,9.056,0,0,0-.9-1.586,7.273,7.273,0,0,0-2.085-1.978c-.629-.378-1.283-.713-1.959-1.086a6.355,6.355,0,0,1,12.5-.775,2.929,2.929,0,0,0-.471.154,8.665,8.665,0,0,0-2.274,1.576,7.924,7.924,0,0,0-1.474,1.979,6.009,6.009,0,0,0-.627,1.746,7.718,7.718,0,0,0-.195,1.115c-.019,3.017-.009,6.033-.023,9.05a3.591,3.591,0,0,0,.482,1.8,3.948,3.948,0,0,0,2.891,2.023,3.565,3.565,0,0,0,1.842-.17,4.07,4.07,0,0,0,2.786-3.858c.014-4.278.006-8.555.005-12.833v-.433c.215.051.369.085.521.125a8.542,8.542,0,0,1,1.365.378,5.111,5.111,0,0,1,2.986,4.553q0,4.687,0,9.374c0,.024,0,.048,0,.072h-.011v2.431h2.383A5.084,5.084,0,0,0,92.4,122.2V88.58A5.084,5.084,0,0,0,87.322,83.5M56.087,124.848c-.011-2.117,0-4.233,0-6.35a7.558,7.558,0,0,1,.2-2.012A6.137,6.137,0,0,1,57,114.812a5.1,5.1,0,0,1,1.373-1.481,4.822,4.822,0,0,1,1.52-.8c.311-.083.619-.181.934-.239.333-.06.673-.079,1.009-.117v.31q0,6.18,0,12.36Zm9.29-12.355a5.623,5.623,0,0,1,1.817,2.373,4.155,4.155,0,0,1,.359,1.529c.014.8.087,1.592.09,2.387.011,3.123.016,6.246,0,9.369a1.614,1.614,0,0,1-1.116,1.658,1.652,1.652,0,0,1-1.7-.625,2.249,2.249,0,0,1-.3-1.226q0-7.763,0-15.525v-.4l.08-.058c.26.173.529.333.778.52m11.992,11.086a1.34,1.34,0,0,1-1.618,1.384,1.305,1.305,0,0,1-.972-1.064c-.017-.954-.02-1.908-.022-2.861q0-2.741,0-5.482a4.793,4.793,0,0,1,.031-.915,5.529,5.529,0,0,1,.645-1.749,5.684,5.684,0,0,1,1.535-1.634,2.269,2.269,0,0,1,.4-.182v1.647c0,3.619.006,7.237,0,10.856m12.6-1.378a2.65,2.65,0,0,1-2.331,2.627q0-4.467,0-8.934a8.873,8.873,0,0,0-.3-2.481,8.147,8.147,0,0,0-.991-2.205,7.867,7.867,0,0,0-4.762-3.3,9.306,9.306,0,0,0-1.563-.175.244.244,0,0,1-.258-.192c-.191-.536-.34-1.088-.557-1.612a7.345,7.345,0,0,0-1.416-2.2,9.836,9.836,0,0,0-1.549-1.418,8.886,8.886,0,0,0-2.252-1.153,8.052,8.052,0,0,0-1.948-.472,8.357,8.357,0,0,0-3.083.179,15.583,15.583,0,0,0-1.539.468,9.331,9.331,0,0,0-4.074,3.39,7.263,7.263,0,0,0-1.013,2.143c-.136.541-.285,1.079-.4,1.624-.07.327-.09.665-.126.944-.651.1-1.306.157-1.94.306a9.1,9.1,0,0,0-1.737.583,8.479,8.479,0,0,0-3.706,3.542,6.844,6.844,0,0,0-.725,1.828A8.087,8.087,0,0,0,53.4,117.2c-.025,2.543-.02,5.087-.018,7.63a2.649,2.649,0,0,1-2.331-2.626V88.58A2.65,2.65,0,0,1,53.7,85.933H87.322a2.65,2.65,0,0,1,2.647,2.647Z" transform="translate(-38.147 -65.511)" fill="#fff"/>
    <path id="Path_16" data-name="Path 16" d="M63.113,24.429a1.61,1.61,0,0,1-1.143-.473L32.812,3.415a.634.634,0,0,0-.9,0L2.759,23.955A1.616,1.616,0,0,1,.474,21.67L29.632,1.13a3.87,3.87,0,0,1,5.466,0L64.256,21.67a1.616,1.616,0,0,1-1.143,2.758" transform="translate(0 0)" fill="#fff"/>
    <path id="Path_17" data-name="Path 17" d="M407.489,212.884l-.5.383a2.735,2.735,0,0,0-.993-.817,2.907,2.907,0,0,0-1.273-.278,2.812,2.812,0,0,0-1.4.364,2.615,2.615,0,0,0-1,.978,2.707,2.707,0,0,0-.355,1.381,2.592,2.592,0,0,0,.795,1.934,2.755,2.755,0,0,0,2.006.775,2.82,2.82,0,0,0,2.227-1.043l.5.379a3.194,3.194,0,0,1-1.183.933,3.71,3.71,0,0,1-1.583.33A3.294,3.294,0,0,1,402.1,217.1a3.341,3.341,0,0,1-.806-2.258,3.139,3.139,0,0,1,.976-2.341,3.364,3.364,0,0,1,2.445-.95,3.591,3.591,0,0,1,1.6.351,3.112,3.112,0,0,1,1.172.984" transform="translate(-314.836 -165.971)" fill="#fff"/>
    <path id="Path_18" data-name="Path 18" d="M436.876,219.387a2.323,2.323,0,0,1,1.8.784,2.517,2.517,0,0,1-.037,3.41,2.478,2.478,0,0,1-3.522,0,2.512,2.512,0,0,1-.037-3.406,2.32,2.32,0,0,1,1.8-.788m0,.59a1.74,1.74,0,0,0-1.293.556,1.858,1.858,0,0,0-.541,1.344,1.907,1.907,0,0,0,.246.948,1.745,1.745,0,0,0,.666.679,1.892,1.892,0,0,0,1.842,0,1.747,1.747,0,0,0,.666-.679,1.907,1.907,0,0,0,.246-.948,1.854,1.854,0,0,0-.542-1.344,1.742,1.742,0,0,0-1.291-.556" transform="translate(-340.832 -172.121)" fill="#fff"/>
    <path id="Path_19" data-name="Path 19" d="M462.3,219.507h.6v.84a2.52,2.52,0,0,1,.8-.721,1.969,1.969,0,0,1,.956-.239,1.663,1.663,0,0,1,.933.267,1.588,1.588,0,0,1,.6.719,3.8,3.8,0,0,1,.194,1.409v2.413h-.6v-2.236a5.5,5.5,0,0,0-.067-1.082,1.187,1.187,0,0,0-.4-.7,1.215,1.215,0,0,0-.776-.235,1.486,1.486,0,0,0-.98.362,1.7,1.7,0,0,0-.571.9,6.242,6.242,0,0,0-.086,1.275v1.719h-.6Z" transform="translate(-362.702 -172.12)" fill="#fff"/>
    <path id="Path_20" data-name="Path 20" d="M487.28,219.507h.6v.84a2.52,2.52,0,0,1,.8-.721,1.968,1.968,0,0,1,.956-.239,1.662,1.662,0,0,1,.933.267,1.588,1.588,0,0,1,.6.719,3.809,3.809,0,0,1,.194,1.409v2.413h-.6v-2.236a5.532,5.532,0,0,0-.067-1.082,1.191,1.191,0,0,0-.4-.7,1.216,1.216,0,0,0-.776-.235,1.487,1.487,0,0,0-.98.362,1.694,1.694,0,0,0-.571.9,6.247,6.247,0,0,0-.086,1.275v1.719h-.6Z" transform="translate(-382.297 -172.12)" fill="#fff"/>
    <path id="Path_21" data-name="Path 21" d="M515.369,222.64l.508.267a2.77,2.77,0,0,1-.578.792,2.291,2.291,0,0,1-.737.459,2.572,2.572,0,0,1-.927.157,2.239,2.239,0,0,1-1.794-.752,2.536,2.536,0,0,1-.647-1.7,2.506,2.506,0,0,1,.548-1.59,2.238,2.238,0,0,1,1.858-.887,2.313,2.313,0,0,1,1.915.909,2.539,2.539,0,0,1,.517,1.6h-4.218a1.908,1.908,0,0,0,.522,1.339,1.665,1.665,0,0,0,1.247.522,2,2,0,0,0,.7-.125,1.828,1.828,0,0,0,.576-.33,2.8,2.8,0,0,0,.513-.665m0-1.262a2,2,0,0,0-.352-.771,1.663,1.663,0,0,0-.61-.465,1.868,1.868,0,0,0-.8-.177,1.718,1.718,0,0,0-1.186.444,2.006,2.006,0,0,0-.548.969Z" transform="translate(-401.059 -172.121)" fill="#fff"/>
    <path id="Path_22" data-name="Path 22" d="M542.619,220.481l-.478.3a2,2,0,0,0-1.691-.823,1.957,1.957,0,0,0-1.422.551,1.8,1.8,0,0,0-.566,1.338,1.9,1.9,0,0,0,.26.964,1.828,1.828,0,0,0,.714.7,2.079,2.079,0,0,0,1.018.249,2.058,2.058,0,0,0,1.687-.823l.478.315a2.264,2.264,0,0,1-.9.785,2.885,2.885,0,0,1-1.291.279,2.549,2.549,0,0,1-1.844-.706,2.3,2.3,0,0,1-.733-1.719,2.455,2.455,0,0,1,.343-1.264,2.416,2.416,0,0,1,.941-.911,2.75,2.75,0,0,1,1.34-.327,2.862,2.862,0,0,1,.9.142,2.5,2.5,0,0,1,.734.371,2.02,2.02,0,0,1,.513.581" transform="translate(-421.972 -172.121)" fill="#fff"/>
    <path id="Path_23" data-name="Path 23" d="M564.809,211.868h.6v1.741h.956v.521h-.956V218.3h-.6V214.13h-.823v-.521h.823Z" transform="translate(-442.477 -166.221)" fill="#fff"/>
    <path id="Path_24" data-name="Path 24" d="M578.417,210.988a.5.5,0,0,1,0,1,.473.473,0,0,1-.348-.147.478.478,0,0,1-.146-.349.483.483,0,0,1,.146-.353.473.473,0,0,1,.348-.146m-.3,1.93h.6v4.687h-.6Z" transform="translate(-453.412 -165.531)" fill="#fff"/>
    <path id="Path_25" data-name="Path 25" d="M587.443,219.507h.6v.84a2.52,2.52,0,0,1,.8-.721,1.968,1.968,0,0,1,.956-.239,1.663,1.663,0,0,1,.933.267,1.589,1.589,0,0,1,.6.719,3.8,3.8,0,0,1,.194,1.409v2.413h-.6v-2.236a5.5,5.5,0,0,0-.067-1.082,1.188,1.188,0,0,0-.4-.7,1.215,1.215,0,0,0-.776-.235,1.487,1.487,0,0,0-.98.362,1.7,1.7,0,0,0-.571.9,6.238,6.238,0,0,0-.086,1.275v1.719h-.6Z" transform="translate(-460.88 -172.12)" fill="#fff"/>
    <path id="Path_26" data-name="Path 26" d="M615.58,219.508h.6v3.735a4.414,4.414,0,0,1-.172,1.443,1.877,1.877,0,0,1-.823,1,2.7,2.7,0,0,1-1.409.349,3.228,3.228,0,0,1-1.083-.171,2.174,2.174,0,0,1-.782-.458,2.727,2.727,0,0,1-.556-.84h.655a1.73,1.73,0,0,0,.69.689,2.222,2.222,0,0,0,1.048.224,2.167,2.167,0,0,0,1.042-.23,1.41,1.41,0,0,0,.606-.577,2.575,2.575,0,0,0,.181-1.123V223.3a2.288,2.288,0,0,1-.832.661,2.473,2.473,0,0,1-2.26-.09,2.282,2.282,0,0,1-.88-.864,2.36,2.36,0,0,1-.31-1.193,2.438,2.438,0,0,1,2.424-2.43,2.246,2.246,0,0,1,.981.218,2.708,2.708,0,0,1,.878.717Zm-1.779.461a1.906,1.906,0,0,0-.952.248,1.794,1.794,0,0,0-.689.685,1.873,1.873,0,0,0-.25.946,1.706,1.706,0,0,0,.517,1.275,2.036,2.036,0,0,0,2.678,0,1.765,1.765,0,0,0,.506-1.314,1.905,1.905,0,0,0-.232-.946,1.7,1.7,0,0,0-.659-.657,1.835,1.835,0,0,0-.918-.241" transform="translate(-479.596 -172.121)" fill="#fff"/>
    <path id="Path_27" data-name="Path 27" d="M651.791,212.288h3.632v.62h-3v1.986H655.4v.62h-2.973V218H655.4v.62h-3.606Z" transform="translate(-511.365 -166.551)" fill="#fff"/>
    <path id="Path_28" data-name="Path 28" d="M673.247,219.507h.6v.81a2.329,2.329,0,0,1,.647-.655,1.833,1.833,0,0,1,.962-.276,1.6,1.6,0,0,1,.647.134,1.386,1.386,0,0,1,.5.355,1.907,1.907,0,0,1,.336.636,2.223,2.223,0,0,1,.752-.838,1.779,1.779,0,0,1,.971-.287,1.52,1.52,0,0,1,.857.246,1.464,1.464,0,0,1,.552.685,3.653,3.653,0,0,1,.181,1.318v2.559h-.616v-2.559a3.34,3.34,0,0,0-.107-1.036.932.932,0,0,0-.367-.454,1.1,1.1,0,0,0-.62-.172,1.351,1.351,0,0,0-.8.259,1.488,1.488,0,0,0-.53.689,4.368,4.368,0,0,0-.167,1.439v1.835h-.6v-2.4a4.12,4.12,0,0,0-.106-1.152.967.967,0,0,0-.368-.487,1.067,1.067,0,0,0-.625-.183,1.348,1.348,0,0,0-.782.252,1.491,1.491,0,0,0-.539.679,3.661,3.661,0,0,0-.174,1.305v1.986h-.6Z" transform="translate(-528.198 -172.12)" fill="#fff"/>
    <path id="Path_29" data-name="Path 29" d="M711.722,219.508h.6v.862a2.422,2.422,0,0,1,.822-.737,2.188,2.188,0,0,1,1.037-.245,2.314,2.314,0,0,1,1.709.72,2.377,2.377,0,0,1,.71,1.732,2.421,2.421,0,0,1-.7,1.756,2.37,2.37,0,0,1-2.726.489,2.589,2.589,0,0,1-.848-.694v2.52h-.6Zm2.412.461a1.772,1.772,0,0,0-1.317.546,1.867,1.867,0,0,0-.535,1.36,1.932,1.932,0,0,0,.239.96,1.742,1.742,0,0,0,.683.675,1.892,1.892,0,0,0,.939.25,1.771,1.771,0,0,0,.913-.252,1.845,1.845,0,0,0,.681-.7,1.9,1.9,0,0,0,0-1.893,1.815,1.815,0,0,0-1.605-.942" transform="translate(-558.384 -172.121)" fill="#fff"/>
    <rect id="Rectangle_11" data-name="Rectangle 11" width="0.603" height="6.497" transform="translate(159.258 45.577)" fill="#fff"/>
    <path id="Path_30" data-name="Path 30" d="M749.2,219.387a2.323,2.323,0,0,1,1.8.784,2.517,2.517,0,0,1-.037,3.41,2.478,2.478,0,0,1-3.522,0,2.511,2.511,0,0,1-.037-3.406,2.32,2.32,0,0,1,1.8-.788m0,.59a1.74,1.74,0,0,0-1.293.556,1.858,1.858,0,0,0-.54,1.344,1.9,1.9,0,0,0,.247.948,1.744,1.744,0,0,0,.666.679,1.892,1.892,0,0,0,1.842,0,1.747,1.747,0,0,0,.666-.679,1.907,1.907,0,0,0,.246-.948,1.853,1.853,0,0,0-.543-1.344,1.742,1.742,0,0,0-1.291-.556" transform="translate(-585.869 -172.121)" fill="#fff"/>
    <path id="Path_31" data-name="Path 31" d="M772.29,219.947h.638l1.611,3.609,1.564-3.609h.642l-2.8,6.4h-.637l.9-2.07Z" transform="translate(-605.902 -172.56)" fill="#fff"/>
    <path id="Path_32" data-name="Path 32" d="M799.7,222.64l.508.267a2.768,2.768,0,0,1-.578.792,2.3,2.3,0,0,1-.737.459,2.572,2.572,0,0,1-.927.157,2.239,2.239,0,0,1-1.794-.752,2.535,2.535,0,0,1-.647-1.7,2.507,2.507,0,0,1,.548-1.59,2.238,2.238,0,0,1,1.858-.887,2.313,2.313,0,0,1,1.915.909,2.537,2.537,0,0,1,.517,1.6h-4.218a1.909,1.909,0,0,0,.522,1.339,1.666,1.666,0,0,0,1.247.522,2,2,0,0,0,.7-.125,1.829,1.829,0,0,0,.576-.33,2.811,2.811,0,0,0,.514-.665m0-1.262a2,2,0,0,0-.352-.771,1.663,1.663,0,0,0-.61-.465,1.868,1.868,0,0,0-.8-.177,1.719,1.719,0,0,0-1.186.444,2,2,0,0,0-.548.969Z" transform="translate(-624.132 -172.121)" fill="#fff"/>
    <path id="Path_33" data-name="Path 33" d="M826.317,222.64l.508.267a2.769,2.769,0,0,1-.578.792,2.293,2.293,0,0,1-.737.459,2.572,2.572,0,0,1-.927.157,2.24,2.24,0,0,1-1.794-.752,2.536,2.536,0,0,1-.647-1.7,2.507,2.507,0,0,1,.548-1.59,2.238,2.238,0,0,1,1.858-.887,2.313,2.313,0,0,1,1.915.909,2.538,2.538,0,0,1,.517,1.6h-4.218a1.909,1.909,0,0,0,.522,1.339,1.665,1.665,0,0,0,1.247.522,2,2,0,0,0,.7-.125,1.828,1.828,0,0,0,.576-.33,2.806,2.806,0,0,0,.513-.665m0-1.262a2,2,0,0,0-.352-.771,1.662,1.662,0,0,0-.61-.465,1.87,1.87,0,0,0-.8-.177,1.718,1.718,0,0,0-1.186.444,2,2,0,0,0-.548.969Z" transform="translate(-645.014 -172.121)" fill="#fff"/>
    <path id="Path_34" data-name="Path 34" d="M850.558,220.02l-.388.4a1.394,1.394,0,0,0-.946-.469.714.714,0,0,0-.5.194.6.6,0,0,0-.21.452.67.67,0,0,0,.173.435,2.423,2.423,0,0,0,.725.5,2.712,2.712,0,0,1,.915.672,1.226,1.226,0,0,1,.238.737,1.323,1.323,0,0,1-.406.978,1.384,1.384,0,0,1-1.014.4,1.776,1.776,0,0,1-.775-.177,1.682,1.682,0,0,1-.61-.487l.379-.431a1.318,1.318,0,0,0,.98.521.883.883,0,0,0,.617-.233.718.718,0,0,0,.255-.547.7.7,0,0,0-.168-.461,2.705,2.705,0,0,0-.76-.5,2.425,2.425,0,0,1-.863-.646,1.215,1.215,0,0,1-.229-.728,1.185,1.185,0,0,1,.365-.887,1.27,1.27,0,0,1,.921-.353,1.91,1.91,0,0,1,1.3.633" transform="translate(-665.111 -172.121)" fill="#fff"/>
    <path id="Path_35" data-name="Path 35" d="M877.532,218.625v-6.337h.138l4.218,4.858v-4.858h.625v6.337h-.142l-4.183-4.8v4.8Z" transform="translate(-688.471 -166.551)" fill="#fff"/>
    <path id="Path_36" data-name="Path 36" d="M910.463,222.64l.508.267a2.771,2.771,0,0,1-.578.792,2.3,2.3,0,0,1-.738.459,2.57,2.57,0,0,1-.927.157,2.239,2.239,0,0,1-1.794-.752,2.535,2.535,0,0,1-.647-1.7,2.506,2.506,0,0,1,.547-1.59,2.239,2.239,0,0,1,1.859-.887,2.313,2.313,0,0,1,1.915.909,2.538,2.538,0,0,1,.517,1.6h-4.218a1.909,1.909,0,0,0,.522,1.339,1.666,1.666,0,0,0,1.247.522,2,2,0,0,0,.7-.125,1.828,1.828,0,0,0,.576-.33,2.811,2.811,0,0,0,.513-.665m0-1.262a2,2,0,0,0-.352-.771,1.664,1.664,0,0,0-.61-.465,1.87,1.87,0,0,0-.8-.177,1.719,1.719,0,0,0-1.186.444,2,2,0,0,0-.548.969Z" transform="translate(-711.031 -172.121)" fill="#fff"/>
    <path id="Path_37" data-name="Path 37" d="M933.406,211.868h.6v1.741h.956v.521h-.956V218.3h-.6V214.13h-.823v-.521h.823Z" transform="translate(-731.661 -166.221)" fill="#fff"/>
    <path id="Path_38" data-name="Path 38" d="M944.9,219.947h.62l1.437,3.4,1.5-3.4h.109l1.506,3.4,1.465-3.4h.627l-2.036,4.687h-.112l-1.5-3.356-1.5,3.356H946.9Z" transform="translate(-741.325 -172.56)" fill="#fff"/>
    <path id="Path_39" data-name="Path 39" d="M983.261,219.387a2.323,2.323,0,0,1,1.8.784,2.517,2.517,0,0,1-.037,3.41,2.478,2.478,0,0,1-3.522,0,2.512,2.512,0,0,1-.037-3.406,2.321,2.321,0,0,1,1.8-.788m0,.59a1.74,1.74,0,0,0-1.293.556,1.857,1.857,0,0,0-.541,1.344,1.906,1.906,0,0,0,.247.948,1.746,1.746,0,0,0,.666.679,1.892,1.892,0,0,0,1.842,0,1.744,1.744,0,0,0,.666-.679,1.9,1.9,0,0,0,.247-.948,1.854,1.854,0,0,0-.543-1.344,1.741,1.741,0,0,0-1.29-.556" transform="translate(-769.5 -172.121)" fill="#fff"/>
    <path id="Path_40" data-name="Path 40" d="M1007.63,219.507h.616v.685a2.165,2.165,0,0,1,.582-.605,1.149,1.149,0,0,1,.638-.2,1.1,1.1,0,0,1,.534.16l-.314.508a.841.841,0,0,0-.319-.082.873.873,0,0,0-.582.248,1.567,1.567,0,0,0-.427.769,7.387,7.387,0,0,0-.112,1.62v1.585h-.616Z" transform="translate(-790.539 -172.12)" fill="#fff"/>
    <path id="Path_41" data-name="Path 41" d="M1020.989,211.547h.6v3.7l2.173-1.892h.886l-2.576,2.236,2.727,2.451h-.849l-2.361-2.111v2.111h-.6Z" transform="translate(-801.02 -165.97)" fill="#fff"/>
    <path id="Path_42" data-name="Path 42" d="M416,95.526a12.812,12.812,0,0,1-3.712,4.655,7.713,7.713,0,0,1-4.679,1.623A6.19,6.19,0,0,1,403,99.959a6.5,6.5,0,0,1-1.811-4.761,14.361,14.361,0,0,1,1.541-6.146A22.4,22.4,0,0,1,407.006,83a21.376,21.376,0,0,1,4.63-3.655,8.646,8.646,0,0,1,4.155-1.311,4.118,4.118,0,0,1,2.893.983,3.424,3.424,0,0,1,1.074,2.655q0,3.032-2.9,5.99a16.658,16.658,0,0,1-7.408,4.27l.541-1.508a14.659,14.659,0,0,0,6.023-3.827A7.492,7.492,0,0,0,418.38,81.6a2.184,2.184,0,0,0-.713-1.7,2.685,2.685,0,0,0-1.877-.647,6.393,6.393,0,0,0-3.008.967A20.733,20.733,0,0,0,409.055,83a21.8,21.8,0,0,0-4.614,5.851,12.589,12.589,0,0,0-1.729,5.835,5.917,5.917,0,0,0,1.352,4.089,4.6,4.6,0,0,0,3.614,1.516,6.632,6.632,0,0,0,3.983-1.336,11.441,11.441,0,0,0,3.229-3.925Z" transform="translate(-314.753 -61.226)" fill="#fff"/>
    <path id="Path_43" data-name="Path 43" d="M478.948,140.935q-.066.164-.115.311a.774.774,0,0,0-.049.213.376.376,0,0,0,.066.213.182.182,0,0,0,.148.1,7.012,7.012,0,0,0,1.811-1.106q1.549-1.107,3.991-3.057v1.344l-.41.311q-5.769,4.474-6.916,4.474a.583.583,0,0,1-.443-.221.8.8,0,0,1-.2-.549,1.976,1.976,0,0,1,.115-.524q.114-.36.328-.852l1.082-2.442a17.1,17.1,0,0,1-2.86,3.467,3.786,3.786,0,0,1-2.417,1.024,2.431,2.431,0,0,1-2.032-1.049,4.443,4.443,0,0,1-.787-2.737,6.013,6.013,0,0,1,.475-2.368,8.047,8.047,0,0,1,1.442-2.2,12.469,12.469,0,0,1,3.884-2.852,10.115,10.115,0,0,1,4.343-1.065,6.241,6.241,0,0,1,1.541.172,4.74,4.74,0,0,1,1.311.565l-.065,1.278a5.4,5.4,0,0,0-1.369-.672,4.829,4.829,0,0,0-1.451-.213,9.035,9.035,0,0,0-3.851.951,9.765,9.765,0,0,0-3.278,2.409,7.5,7.5,0,0,0-1.237,1.959,5.123,5.123,0,0,0-.434,2.008,3.019,3.019,0,0,0,.483,1.811,1.514,1.514,0,0,0,1.286.664q1,0,2.532-1.655a66.8,66.8,0,0,0,4.925-6.622l1.311.131Z" transform="translate(-368.945 -103.062)" fill="#fff"/>
    <path id="Path_44" data-name="Path 44" d="M541.656,135.428q-.066.164-.115.328a.99.99,0,0,0-.049.213.371.371,0,0,0,.057.2.217.217,0,0,0,.139.106,6.689,6.689,0,0,0,1.77-1.09q1.508-1.09,4-3.073v1.344l-.77.59q-5.409,4.2-6.539,4.2a.539.539,0,0,1-.459-.262,1.158,1.158,0,0,1-.18-.672,1.751,1.751,0,0,1,.1-.492,7.328,7.328,0,0,1,.279-.721l2.819-6.277q.131-.295.36-.786a4.724,4.724,0,0,0,.443-1.115q-.017-.426-1.426-.541-.705-.049-1.131-.1a17.537,17.537,0,0,1-5.572,6.54v-1.344a12.883,12.883,0,0,0,2.565-2.426,15.338,15.338,0,0,0,1.975-3.147,1.232,1.232,0,0,1-.467-.45,1.335,1.335,0,0,1-.139-.647,1.591,1.591,0,0,1,.328-1.041,1.032,1.032,0,0,1,.836-.4.928.928,0,0,1,.7.3,1.033,1.033,0,0,1,.279.737,2.234,2.234,0,0,1-.033.394,2.838,2.838,0,0,1-.1.377q.41,0,.836-.017c.087-.011.142-.016.164-.016a3.891,3.891,0,0,1,1.967.369,1.312,1.312,0,0,1,.59,1.2,2.429,2.429,0,0,1-.147.737q-.148.442-.689,1.655Z" transform="translate(-420.033 -97.571)" fill="#fff"/>
    <path id="Path_45" data-name="Path 45" d="M598.8,137.608v1.344a40.822,40.822,0,0,1-5.359,3.819,6.664,6.664,0,0,1-3.065.868,3.261,3.261,0,0,1-2.532-.975,3.967,3.967,0,0,1-.893-2.778,6.5,6.5,0,0,1,.664-2.819,9.8,9.8,0,0,1,1.959-2.688,13,13,0,0,1,2.909-2.221,5.689,5.689,0,0,1,2.663-.795,2.36,2.36,0,0,1,1.581.484,1.683,1.683,0,0,1,.566,1.352,5.074,5.074,0,0,1-2.319,4.04,8.928,8.928,0,0,1-5.6,1.778q-.36,0-.533-.008c-.115-.006-.226-.014-.336-.024a3.139,3.139,0,0,0-.115.491,3.342,3.342,0,0,0-.033.475,2.673,2.673,0,0,0,.557,1.836,2.085,2.085,0,0,0,1.639.623,5.978,5.978,0,0,0,2.786-.844,46.39,46.39,0,0,0,5.458-3.958m-10.1.2q.262.034.524.049c.175.011.355.016.541.016a6.619,6.619,0,0,0,4.2-1.516q1.918-1.516,1.917-2.975a.775.775,0,0,0-.271-.623,1.091,1.091,0,0,0-.729-.229,5.414,5.414,0,0,0-3.155,1.508,11.922,11.922,0,0,0-3.024,3.769" transform="translate(-460.497 -103.061)" fill="#fff"/>
    <path id="Path_46" data-name="Path 46" d="M669.306,102.213h-1.868q3.524-4.769,8.342-16.176l.279-.639q.327-.8.9-2.2,2.114-5.163,3.13-5.163a.87.87,0,0,1,.844.614,5.837,5.837,0,0,1,.254,2.04l.082,17.291q1.131-2.671,3.212-8.432a61.336,61.336,0,0,1,3.491-8.285l.7,1.541q-2.1,4.867-4.663,11.816t-3.417,6.949a.579.579,0,0,1-.524-.295,1.647,1.647,0,0,1-.18-.853V99.2l-.148-18.733q-1.066,2.295-3.032,6.916a92.917,92.917,0,0,1-7.408,14.833" transform="translate(-523.64 -61.226)" fill="#fff"/>
    <path id="Path_47" data-name="Path 47" d="M761.825,137.608v1.344a40.818,40.818,0,0,1-5.359,3.819,6.664,6.664,0,0,1-3.065.868,3.261,3.261,0,0,1-2.532-.975,3.967,3.967,0,0,1-.893-2.778,6.5,6.5,0,0,1,.664-2.819,9.8,9.8,0,0,1,1.959-2.688,13,13,0,0,1,2.909-2.221,5.688,5.688,0,0,1,2.663-.795,2.361,2.361,0,0,1,1.581.484,1.683,1.683,0,0,1,.566,1.352,5.074,5.074,0,0,1-2.319,4.04,8.927,8.927,0,0,1-5.6,1.778q-.36,0-.533-.008c-.115-.006-.227-.014-.336-.024a3.153,3.153,0,0,0-.115.491,3.351,3.351,0,0,0-.033.475,2.673,2.673,0,0,0,.557,1.836,2.085,2.085,0,0,0,1.639.623,5.978,5.978,0,0,0,2.786-.844,46.39,46.39,0,0,0,5.458-3.958m-10.1.2q.262.034.524.049c.175.011.355.016.541.016a6.619,6.619,0,0,0,4.2-1.516q1.918-1.516,1.918-2.975a.775.775,0,0,0-.271-.623,1.091,1.091,0,0,0-.729-.229,5.413,5.413,0,0,0-3.155,1.508,11.919,11.919,0,0,0-3.024,3.769" transform="translate(-588.396 -103.061)" fill="#fff"/>
    <path id="Path_48" data-name="Path 48" d="M804.169,103.776l1.41-3.36q-.853.8-1.557,1.369a12.4,12.4,0,0,1-1.327.943v-1.344q1.573-1.213,2.729-2.27a6.86,6.86,0,0,0,1.237-1.286l1.983-4.933h-3.1l.541-1.065H809.1l1.95-4.769q.049-.114.131-.328.787-2,1.377-2a.618.618,0,0,1,.443.156.511.511,0,0,1,.164.385,2.516,2.516,0,0,1-.148.7,11.33,11.33,0,0,1-.459,1.147l-1.983,4.7h2.459l-.41,1.065h-2.475l-4.343,10.587q-.049.132-.164.393a3.581,3.581,0,0,0-.361,1.1.47.47,0,0,0,.541.541q.524,0,4.818-3.245l1.688-1.278v1.377h-.016q-6.2,4.687-7.67,4.687a1.242,1.242,0,0,1-.893-.279,1.139,1.139,0,0,1-.287-.852,4.573,4.573,0,0,1,.459-1.573q.164-.377.246-.574" transform="translate(-629.756 -66.477)" fill="#fff"/>
    <path id="Path_49" data-name="Path 49" d="M894.387,95.407l-.41,1.18q-2.032-.393-3.245-.566a14.383,14.383,0,0,0-1.885-.172,8.676,8.676,0,0,0-3.688.656q-1.377.656-1.377,1.688,0,1.1,1.483,1.68a12.131,12.131,0,0,0,4.253.582A9.929,9.929,0,0,0,895.034,99a4.128,4.128,0,0,0,2.237-3.45,2.866,2.866,0,0,0-.729-1.958,10.4,10.4,0,0,0-2.958-1.942,12.694,12.694,0,0,1-3.95-2.68,4.323,4.323,0,0,1-.885-2.762,5.678,5.678,0,0,1,1.18-3.311,11.82,11.82,0,0,1,3.343-3.032,14.106,14.106,0,0,1,3.057-1.45,9.243,9.243,0,0,1,2.893-.533,3.663,3.663,0,0,1,2.3.656,2.124,2.124,0,0,1,.844,1.77q0,2.115-2.811,3.991a16.672,16.672,0,0,1-7.154,2.45l.311-1.147a15.6,15.6,0,0,0,5.892-2.164q2.351-1.54,2.352-2.966a1.169,1.169,0,0,0-.418-.992,2.113,2.113,0,0,0-1.286-.32,7.08,7.08,0,0,0-2.344.492,15.274,15.274,0,0,0-2.819,1.393,11.049,11.049,0,0,0-2.967,2.491,4.184,4.184,0,0,0-1.033,2.573,3.116,3.116,0,0,0,.754,2.04,7.9,7.9,0,0,0,2.475,1.795q.409.213,1.213.59a11.7,11.7,0,0,1,2.54,1.491,5.16,5.16,0,0,1,1.295,1.623,4,4,0,0,1,.475,1.819,5.22,5.22,0,0,1-2.729,4.466,12.674,12.674,0,0,1-7.039,1.778,11.052,11.052,0,0,1-4.958-.91,2.8,2.8,0,0,1-1.778-2.548,3.149,3.149,0,0,1,1.778-2.6,8.088,8.088,0,0,1,4.4-1.123,18.624,18.624,0,0,1,2.7.221,31.791,31.791,0,0,1,3.163.648" transform="translate(-692.243 -61.106)" fill="#fff"/>
    <path id="Path_50" data-name="Path 50" d="M965.744,103.776l1.41-3.36q-.853.8-1.557,1.369a12.4,12.4,0,0,1-1.327.943v-1.344q1.573-1.213,2.729-2.27a6.859,6.859,0,0,0,1.237-1.286l1.983-4.933h-3.1l.541-1.065h3.016l1.95-4.769q.049-.114.131-.328.787-2,1.377-2a.618.618,0,0,1,.443.156.511.511,0,0,1,.164.385,2.514,2.514,0,0,1-.148.7,11.313,11.313,0,0,1-.459,1.147l-1.983,4.7h2.458l-.41,1.065h-2.475l-4.343,10.587q-.049.132-.164.393a3.577,3.577,0,0,0-.361,1.1.47.47,0,0,0,.541.541q.524,0,4.818-3.245l1.688-1.278v1.377h-.016q-6.2,4.687-7.67,4.687a1.242,1.242,0,0,1-.893-.279,1.139,1.139,0,0,1-.287-.852,4.574,4.574,0,0,1,.459-1.573q.164-.377.246-.574" transform="translate(-756.52 -66.477)" fill="#fff"/>
    <path id="Path_51" data-name="Path 51" d="M1015.024,140.935q-.066.164-.115.311a.776.776,0,0,0-.049.213.376.376,0,0,0,.066.213.182.182,0,0,0,.148.1,7.012,7.012,0,0,0,1.811-1.106q1.549-1.107,3.991-3.057v1.344l-.41.311q-5.77,4.474-6.917,4.474a.583.583,0,0,1-.442-.221.8.8,0,0,1-.2-.549,1.971,1.971,0,0,1,.115-.524,9.122,9.122,0,0,1,.328-.852l1.082-2.442a17.1,17.1,0,0,1-2.86,3.467,3.785,3.785,0,0,1-2.417,1.024,2.431,2.431,0,0,1-2.032-1.049,4.444,4.444,0,0,1-.787-2.737,6.011,6.011,0,0,1,.475-2.368,8.046,8.046,0,0,1,1.442-2.2,12.471,12.471,0,0,1,3.884-2.852,10.113,10.113,0,0,1,4.343-1.065,6.241,6.241,0,0,1,1.54.172,4.739,4.739,0,0,1,1.311.565l-.065,1.278a5.4,5.4,0,0,0-1.369-.672,4.828,4.828,0,0,0-1.451-.213,9.036,9.036,0,0,0-3.851.951,9.763,9.763,0,0,0-3.278,2.409,7.5,7.5,0,0,0-1.237,1.959,5.125,5.125,0,0,0-.435,2.008,3.019,3.019,0,0,0,.484,1.811,1.514,1.514,0,0,0,1.286.664q1,0,2.532-1.655a66.767,66.767,0,0,0,4.925-6.622l1.311.131Z" transform="translate(-789.525 -103.062)" fill="#fff"/>
    <path id="Path_52" data-name="Path 52" d="M1073.221,92.715v1.327a24.337,24.337,0,0,1-1.95,1.672q-.983.754-2,1.393a18.655,18.655,0,0,1-2.1,7.99q-1.836,3.352-3.721,3.351a1.319,1.319,0,0,1-1.115-.516,2.442,2.442,0,0,1-.393-1.5,6.4,6.4,0,0,1,.172-1.327,15.426,15.426,0,0,1,.467-1.655l4-11.178q-.475.475-1.057,1.008t-1.5,1.27V93.207q1.492-1.327,2.3-2.2a9.314,9.314,0,0,0,1.221-1.581l3.458-9.538q.279-.787.738-2.1,1.18-3.474,1.852-3.475a.636.636,0,0,1,.491.246.828.828,0,0,1,.213.557,43.272,43.272,0,0,1-1.811,4.933q-1.811,4.557-3.253,8.67l-5.212,14.767-.065.2a9.688,9.688,0,0,0-.672,2.524.97.97,0,0,0,.148.549.428.428,0,0,0,.361.221q1.115,0,2.655-3.311a18.409,18.409,0,0,0,1.672-7.227,29.524,29.524,0,0,0,5.1-3.721" transform="translate(-833.152 -58.3)" fill="#fff"/>
    <path id="Path_53" data-name="Path 53" d="M1113.235,92.715v1.327a24.317,24.317,0,0,1-1.95,1.672q-.983.754-2,1.393a18.653,18.653,0,0,1-2.1,7.99q-1.836,3.352-3.721,3.351a1.319,1.319,0,0,1-1.115-.516,2.442,2.442,0,0,1-.393-1.5,6.4,6.4,0,0,1,.172-1.327,15.426,15.426,0,0,1,.467-1.655l4-11.178q-.475.475-1.057,1.008t-1.5,1.27V93.207q1.492-1.327,2.3-2.2a9.324,9.324,0,0,0,1.221-1.581l3.458-9.538q.279-.787.738-2.1,1.18-3.474,1.852-3.475a.636.636,0,0,1,.492.246.829.829,0,0,1,.213.557,43.261,43.261,0,0,1-1.811,4.933q-1.811,4.557-3.253,8.67l-5.212,14.767-.065.2a9.688,9.688,0,0,0-.672,2.524.97.97,0,0,0,.148.549.429.429,0,0,0,.361.221q1.115,0,2.655-3.311a18.411,18.411,0,0,0,1.672-7.227,29.524,29.524,0,0,0,5.1-3.721" transform="translate(-864.545 -58.3)" fill="#fff"/>
  </g>
</svg>
