<svg xmlns="http://www.w3.org/2000/svg" width="13.082" height="13.082" viewBox="0 0 13.082 13.082">
  <g id="Group_67913" data-name="Group 67913" transform="translate(0 0)">
    <path id="Path_28979" data-name="Path 28979" d="M6.541,0a6.541,6.541,0,1,0,6.541,6.541A6.541,6.541,0,0,0,6.541,0Zm0,11.992a5.451,5.451,0,1,1,5.451-5.451A5.451,5.451,0,0,1,6.541,11.992Z" fill="#0080f9"/>
    <path id="Path_28980" data-name="Path 28980" d="M15.165,10.5a.545.545,0,0,0-.545.545V13.4l-1.837,1.151a.546.546,0,0,0,.579.927l2.093-1.308a.545.545,0,0,0,.256-.468V11.045A.545.545,0,0,0,15.165,10.5Z" transform="translate(-8.624 -7.229)" fill="#0080f9"/>
  </g>
</svg>
