<svg xmlns="http://www.w3.org/2000/svg" width="35.999" height="35.999" viewBox="0 0 35.999 35.999">
  <g id="upload" transform="translate(0 0)">
    <path id="Path_80" data-name="Path 80" d="M13.323,3.867l-.01,23.156a1.5,1.5,0,0,0,1.5,1.5h0a1.5,1.5,0,0,0,1.5-1.5l.01-23.131,4.368,4.369a1.5,1.5,0,0,0,2.121,0h0a1.5,1.5,0,0,0,0-2.121L18,1.319a4.5,4.5,0,0,0-6.366,0L6.813,6.136a1.5,1.5,0,0,0,0,2.121h0a1.5,1.5,0,0,0,2.121,0Z" transform="translate(3.187)" fill="#323234"/>
    <path id="Path_81" data-name="Path 81" d="M33,17.5v6A1.5,1.5,0,0,1,31.5,25H4.5A1.5,1.5,0,0,1,3,23.5v-6A1.5,1.5,0,0,0,1.5,16h0A1.5,1.5,0,0,0,0,17.5v6A4.5,4.5,0,0,0,4.5,28h27A4.5,4.5,0,0,0,36,23.5v-6A1.5,1.5,0,0,0,34.5,16h0A1.5,1.5,0,0,0,33,17.5Z" transform="translate(0 7.999)" fill="#323234"/>
  </g>
</svg>
