<svg xmlns="http://www.w3.org/2000/svg" width="42" height="42" viewBox="0 0 42 42">
  <g id="Group_45" data-name="Group 45" transform="translate(-375 -5305)">
    <circle id="Ellipse_4" data-name="Ellipse 4" cx="21" cy="21" r="21" transform="translate(375 5305)" fill="red"/>
    <g id="Group_43" data-name="Group 43" transform="translate(384 5314)">
      <path id="Path_54" data-name="Path 54" d="M0,0H24V24H0Z" fill="none"/>
      <g id="Group_48" data-name="Group 48">
        <path id="Path_56" data-name="Path 56" d="M0,0H24V24H0Z" fill="none"/>
        <path id="Path_57" data-name="Path 57" d="M21.543,6.5A31.058,31.058,0,0,1,22,12a31.058,31.058,0,0,1-.457,5.5A2.811,2.811,0,0,1,19.6,19.524C17.9,20,12,20,12,20s-5.893,0-7.605-.476A2.811,2.811,0,0,1,2.457,17.5,31.058,31.058,0,0,1,2,12a31.058,31.058,0,0,1,.457-5.5A2.811,2.811,0,0,1,4.395,4.476C6.107,4,12,4,12,4s5.9,0,7.6.476A2.811,2.811,0,0,1,21.543,6.5ZM10,15.5,16,12,10,8.5Z" fill="#fff"/>
      </g>
    </g>
  </g>
</svg>
