<svg xmlns="http://www.w3.org/2000/svg" width="15.445" height="15.13" viewBox="0 0 15.445 15.13">
  <g id="Group_67884" data-name="Group 67884" transform="translate(0.101 0.05)">
    <path id="Path_28987" data-name="Path 28987" d="M12.025,8.537c-.085,0-.168.006-.251.013V6.175l.453-.5a8.429,8.429,0,0,0,.832-1.095l2.183-3.42a.25.25,0,0,0-.385-.315l-.414.4A1.76,1.76,0,0,0,12.776.02H3.771A2.26,2.26,0,0,0,1.516,2.271L1.5,11.793H.737a.536.536,0,0,0-.454.247.156.156,0,0,0-.011.018A1.907,1.907,0,0,0,.56,14.39a2.271,2.271,0,0,0,1.6.66h8.367a1.242,1.242,0,0,0,.566-.139,3.256,3.256,0,1,0,.937-6.374Zm.612-4.23a7.932,7.932,0,0,1-.783,1.03L10.282,7.087l-.487-.381,1.8-2c.129-.143.264-.283.4-.415l1.693-1.629ZM10.028,7.525l-.194.744-1.506.61.482-1.65.574-.207Zm1.747-3.718V3.294c0-.006,0-.012,0-.017h.55Zm1.1-3.275a1.248,1.248,0,0,1,1.138,1.12L12.846,2.775H11.812A4,4,0,0,1,12.877.531ZM2.017,2.272A1.758,1.758,0,0,1,3.771.521h8.452A4.5,4.5,0,0,0,11.284,3c-.008.1-.011.192-.011.289V4.315c-.017.019-.037.036-.054.056L9.285,6.525,8.52,6.8a.251.251,0,0,0-.155.165L7.7,9.235a.251.251,0,0,0,.335.3l2.1-.852a.25.25,0,0,0,.148-.169l.252-.966.734-.818V8.628a3.26,3.26,0,0,0-2.505,3.166H2Zm.138,12.277a1.766,1.766,0,0,1-1.241-.513,1.406,1.406,0,0,1-.221-1.707l.013-.021a.034.034,0,0,1,.03-.014H8.811A3.257,3.257,0,0,0,10.3,14.549Zm9.87,0a2.756,2.756,0,1,1,2.756-2.756A2.759,2.759,0,0,1,12.025,14.549Zm0,0" transform="translate(0.001 -0.019)" fill="#0080f9" stroke="#0080f9" stroke-width="0.1"/>
    <path id="Path_28988" data-name="Path 28988" d="M324.419,333.521l-1.059-.848-.313.391,1.253,1a.25.25,0,0,0,.35-.037l2.255-2.756-.388-.317Zm0,0" transform="translate(-312.931 -320.594)" fill="#0080f9" stroke="#0080f9" stroke-width="0.1"/>
    <path id="Path_28989" data-name="Path 28989" d="M120.039,56.02H126.8v.5h-6.764Zm0,0" transform="translate(-116.28 -54.266)" fill="#0080f9" stroke="#0080f9" stroke-width="0.1"/>
    <path id="Path_28990" data-name="Path 28990" d="M88.039,112.02H95.8v.5H88.039Zm0,0" transform="translate(-85.282 -108.512)" fill="#0080f9" stroke="#0080f9" stroke-width="0.1"/>
    <path id="Path_28991" data-name="Path 28991" d="M88.039,168.02H94.8v.5H88.039Zm0,0" transform="translate(-85.282 -162.759)" fill="#0080f9" stroke="#0080f9" stroke-width="0.1"/>
    <path id="Path_28992" data-name="Path 28992" d="M80.039,224.02H85.3v.5H80.039Zm0,0" transform="translate(-77.533 -217.005)" fill="#0080f9" stroke="#0080f9" stroke-width="0.1"/>
    <path id="Path_28993" data-name="Path 28993" d="M80.039,280.02h4.509v.5H80.039Zm0,0" transform="translate(-77.533 -271.251)" fill="#0080f9" stroke="#0080f9" stroke-width="0.1"/>
    <path id="Path_28994" data-name="Path 28994" d="M224.039,312.02h.5v.5h-.5Zm0,0" transform="translate(-217.024 -302.249)" fill="#0080f9" stroke="#0080f9" stroke-width="0.1"/>
    <path id="Path_28995" data-name="Path 28995" d="M80.039,336.02H83.8v.5H80.039Zm0,0" transform="translate(-77.533 -325.498)" fill="#0080f9" stroke="#0080f9" stroke-width="0.1"/>
  </g>
</svg>
