<svg id="Play-Store" xmlns="http://www.w3.org/2000/svg" xmlns:xlink="http://www.w3.org/1999/xlink" width="179.749" height="60.85" viewBox="0 0 179.749 60.85">
  <defs>
    <linearGradient id="linear-gradient" x1="0.914" y1="0.05" x2="-0.384" y2="0.719" gradientUnits="objectBoundingBox">
      <stop offset="0" stop-color="#00a0ff"/>
      <stop offset="0.007" stop-color="#00a1ff"/>
      <stop offset="0.26" stop-color="#00beff"/>
      <stop offset="0.512" stop-color="#00d2ff"/>
      <stop offset="0.76" stop-color="#00dfff"/>
      <stop offset="1" stop-color="#00e3ff"/>
    </linearGradient>
    <linearGradient id="linear-gradient-2" x1="1.074" y1="0.501" x2="-1.304" y2="0.501" gradientUnits="objectBoundingBox">
      <stop offset="0" stop-color="#ffe000"/>
      <stop offset="0.409" stop-color="#ffbd00"/>
      <stop offset="0.775" stop-color="orange"/>
      <stop offset="1" stop-color="#ff9c00"/>
    </linearGradient>
    <linearGradient id="linear-gradient-3" x1="0.862" y1="0.179" x2="-0.501" y2="1.948" gradientUnits="objectBoundingBox">
      <stop offset="0" stop-color="#ff3a44"/>
      <stop offset="1" stop-color="#c31162"/>
    </linearGradient>
    <linearGradient id="linear-gradient-4" x1="-0.188" y1="-0.543" x2="0.421" y2="0.248" gradientUnits="objectBoundingBox">
      <stop offset="0" stop-color="#32a071"/>
      <stop offset="0.069" stop-color="#2da771"/>
      <stop offset="0.476" stop-color="#15cf74"/>
      <stop offset="0.801" stop-color="#06e775"/>
      <stop offset="1" stop-color="#00f076"/>
    </linearGradient>
  </defs>
  <path id="background" d="M7.3,0H172.447a7.308,7.308,0,0,1,7.3,7.3V53.548a7.308,7.308,0,0,1-7.3,7.3H7.3a7.308,7.308,0,0,1-7.3-7.3V7.3A7.308,7.308,0,0,1,7.3,0Z" fill="#fff"/>
  <g id="Google-play" transform="translate(42.23 24.462)">
    <path id="Fill-1_1_" d="M580.634,66.306l-1.351,1.278c-.316.17-.621.377-.925.511a6.523,6.523,0,0,1-2.738.535,6,6,0,0,1-3.748-1.107A7.352,7.352,0,0,1,569,61.547,6.408,6.408,0,0,1,575.462,55a5.457,5.457,0,0,1,2.9.791A4.679,4.679,0,0,1,580.33,58.6l-6.62,2.69-2.166.17c.706,3.6,3.128,5.7,5.8,5.7a6.942,6.942,0,0,0,3.237-.888s.182-.1.049.037Zm-4.04-7.229c.535-.195.8-.365.8-.767a2.792,2.792,0,0,0-2.763-2.458c-1.107,0-3.2.888-3.2,3.967,0,.487.061,1,.085,1.509Z" transform="translate(-499.753 -48.307)"/>
    <path id="Fill-2" d="M515.868,17.841c0,1.1.195,1.266,1.12,1.351.487.061.961.085,1.436.134l-1.034.621h-4.953c.645-.852.767-.937.767-1.5v-.633l-.012-16.794H511L513.105,0h4.016a1.939,1.939,0,0,0-1.241,1.8l-.012,16.04" transform="translate(-448.812)"/>
    <path id="Fill-3" d="M412.366,59.022a4.763,4.763,0,0,1,1.984,3.809c0,2.093-1.168,3.079-2.349,4.016a2,2,0,0,0-.791,1.387,1.571,1.571,0,0,0,.73,1.217l1.01.791c1.229,1.047,2.349,2.008,2.349,3.955,0,2.653-2.556,5.343-7.375,5.343-4.065,0-6.024-1.947-6.024-4.04a4.042,4.042,0,0,1,2.166-3.444,12.024,12.024,0,0,1,5.355-1.3,3,3,0,0,1-.84-1.923,2.7,2.7,0,0,1,.28-1.107c-.3.024-.621.061-.9.061a4.451,4.451,0,0,1-4.649-4.442,5.06,5.06,0,0,1,1.8-3.785A7.6,7.6,0,0,1,410.127,58h5.781l-1.8,1.022Zm-1.972,12.523a3.546,3.546,0,0,0-.645-.037,11.182,11.182,0,0,0-2.969.462,3.226,3.226,0,0,0-2.434,2.969c0,2.045,1.947,3.517,4.977,3.517,2.714,0,4.15-1.327,4.15-3.1,0-1.485-.937-2.264-3.079-3.809Zm.791-5.452a2.853,2.853,0,0,0,.706-2.057c0-2.032-1.193-5.184-3.517-5.184a2.608,2.608,0,0,0-1.959.937,3.249,3.249,0,0,0-.608,2.081c0,1.886,1.1,5.014,3.493,5.014A2.808,2.808,0,0,0,411.186,66.093Z" transform="translate(-352.989 -50.941)"/>
    <path id="Fill-4_1_" d="M294.852,68.63A6.671,6.671,0,0,1,288,61.913,7,7,0,0,1,295.278,55,6.619,6.619,0,0,1,302,61.718,6.907,6.907,0,0,1,294.852,68.63Zm3.493-2.3a5.183,5.183,0,0,0,.852-3.164c0-2.519-1.18-7.314-4.685-7.314a3.9,3.9,0,0,0-2.544.974,4.362,4.362,0,0,0-1.3,3.481c0,2.823,1.375,7.472,4.795,7.472A3.568,3.568,0,0,0,298.344,66.33Z" transform="translate(-252.951 -48.307)"/>
    <path id="Fill-5" d="M171.852,68.63A6.671,6.671,0,0,1,165,61.913,7,7,0,0,1,172.278,55,6.619,6.619,0,0,1,179,61.718,6.907,6.907,0,0,1,171.852,68.63Zm3.493-2.3a5.183,5.183,0,0,0,.852-3.164c0-2.519-1.193-7.314-4.685-7.314a3.872,3.872,0,0,0-2.544.974,4.322,4.322,0,0,0-1.3,3.481c0,2.823,1.387,7.472,4.795,7.472A3.568,3.568,0,0,0,175.344,66.33Z" transform="translate(-144.92 -48.307)"/>
    <path id="Fill-6" d="M18.231,28.267l-3.785.876a27.49,27.49,0,0,1-4.369.462C2.775,29.594,0,24.19,0,19.955,0,14.795,3.943,10,10.685,10a15.023,15.023,0,0,1,4.053.56,10.28,10.28,0,0,1,3.493,1.655l-2.2,2.105-.925.207.657-1.059A7.556,7.556,0,0,0,10.1,10.961c-4.174,0-7.326,3.189-7.326,7.85,0,5,3.59,9.712,9.359,9.712a7.911,7.911,0,0,0,3.359-.657v-4.3l-3.992.219,2.118-1.144h5.61l-.682.669a.648.648,0,0,0-.268.426c-.024.243-.049,1.01-.049,1.29v3.237" transform="translate(0 -8.783)"/>
    <path id="Fill-7_1_" d="M721.424,66.428V73.62H720V55.329h1.424V57.41A5.645,5.645,0,0,1,726.012,55c3.529,0,5.915,2.69,5.915,6.937,0,4.223-2.373,6.961-5.915,6.961A5.649,5.649,0,0,1,721.424,66.428Zm9.042-4.381c0-3.237-1.667-5.708-4.637-5.708a5.67,5.67,0,0,0-4.369,2.738v5.915a5.72,5.72,0,0,0,4.369,2.787C728.8,67.778,730.466,65.284,730.466,62.046Z" transform="translate(-632.377 -48.307)"/>
    <path id="Fill-8" d="M834,16h1.46V34.377H834Z" transform="translate(-732.503 -14.053)"/>
    <path id="Fill-9" d="M966.4,74.111a3.417,3.417,0,0,0,1.156.219c.876,0,1.473-.353,2.02-1.619l1.034-2.361L965,57h1.594L971.4,68.574,976.172,57h1.606l-6.84,16.149a3.5,3.5,0,0,1-3.359,2.47,5.59,5.59,0,0,1-1.424-.195l.243-1.314" transform="translate(-847.56 -50.063)"/>
    <path id="Fill-10" d="M873.575,68.618q-.146-.694-.219-1.2a7.268,7.268,0,0,1-.073-1.034,5.627,5.627,0,0,1-2.081,1.8,5.738,5.738,0,0,1-2.9.706,4.619,4.619,0,0,1-3.249-1.047A3.642,3.642,0,0,1,863.9,65,3.367,3.367,0,0,1,865.58,62.1a7.739,7.739,0,0,1,4.357-1.12h3.335V59.32a2.766,2.766,0,0,0-.974-2.239,4.109,4.109,0,0,0-2.738-.815,4.368,4.368,0,0,0-2.629.742,2.271,2.271,0,0,0-1,1.862h-1.46l-.024-.073a3.084,3.084,0,0,1,1.387-2.653A5.967,5.967,0,0,1,869.644,55a5.9,5.9,0,0,1,3.773,1.132,3.86,3.86,0,0,1,1.424,3.225v6.572a10.188,10.188,0,0,0,.085,1.375,9.34,9.34,0,0,0,.28,1.314Zm-5.087-.961a5.384,5.384,0,0,0,2.982-.815,4.088,4.088,0,0,0,1.8-2.093V62.18h-3.359a5.43,5.43,0,0,0-3.176.864,2.477,2.477,0,0,0-1.254,2.081,2.3,2.3,0,0,0,.8,1.838A3.3,3.3,0,0,0,868.488,67.657Z" transform="translate(-758.764 -48.307)"/>
  </g>
  <g id="Get-it-on" transform="translate(41.743 9.724)">
    <path id="Fill-1_2_" d="M0,5.208C0,2.592,2.093.9,4.7.9A4.309,4.309,0,0,1,8.3,2.628L7.022,3.31A2.971,2.971,0,0,0,4.7,2.2,2.958,2.958,0,0,0,1.606,5.208,2.972,2.972,0,0,0,4.7,8.214,3.32,3.32,0,0,0,6.815,7.46V6.182H4.138V4.892H8.373V8A4.992,4.992,0,0,1,4.7,9.516C2.093,9.528,0,7.825,0,5.208" transform="translate(0 -0.9)"/>
    <path id="Fill-2_1_" d="M85.5,10.373V2h6.219V3.29H87.094V5.444h4.527v1.3H87.094V9.083h4.625v1.29H85.5" transform="translate(-75.095 -1.866)"/>
    <path id="Fill-3_1_" d="M151.8,10.373V3.29h-2.7V2h6.973V3.29h-2.7v7.083H151.8" transform="translate(-130.955 -1.866)"/>
    <path id="Fill-4_2_" d="M252.3,2h1.521v8.373H252.3Z" transform="translate(-221.595 -1.866)"/>
    <path id="Fill-5_1_" d="M281.1,10.373V3.29h-2.7V2h6.973V3.29h-2.7v7.083H281.1" transform="translate(-244.519 -1.866)"/>
    <path id="Fill-6_1_" d="M378.5,5.308a4.643,4.643,0,1,1,4.637,4.308A4.32,4.32,0,0,1,378.5,5.308Zm7.606-.073a2.982,2.982,0,1,0-5.963,0,2.982,2.982,0,1,0,5.963,0Z" transform="translate(-332.437 -0.988)"/>
    <path id="Fill-7_2_" d="M475.331,10.373,470.67,4.385v5.988H469.1V2h1.606l4.564,5.805V2h1.57v8.373h-1.509" transform="translate(-412.011 -1.866)"/>
  </g>
  <g id="Group_23" data-name="Group 23" transform="translate(7.058 21.652)">
    <path id="Path_5" data-name="Path 5" d="M134.876,311.008a2.462,2.462,0,0,0-.576,1.728v27.233a2.462,2.462,0,0,0,.576,1.728l.09.09,15.264-15.264v-.36L134.966,310.9Z" transform="translate(-134.3 -310.507)" fill="url(#linear-gradient)"/>
    <path id="Path_6" data-name="Path 6" d="M227.876,377.948l-5.076-5.094v-.36l5.094-5.094.108.072,6.03,3.42c1.728.972,1.728,2.574,0,3.564l-6.03,3.42Z" transform="translate(-206.87 -356.837)" fill="url(#linear-gradient-2)"/>
    <path id="Path_7" data-name="Path 7" d="M158.055,401.9l-5.2-5.2L137.5,412.054a1.992,1.992,0,0,0,2.556.072Z" transform="translate(-136.924 -380.863)" fill="url(#linear-gradient-3)"/>
    <path id="Path_8" data-name="Path 8" d="M158.055,319.451l-18-10.224a2.012,2.012,0,0,0-2.556.072l15.354,15.354Z" transform="translate(-136.924 -308.798)" fill="url(#linear-gradient-4)"/>
    <path id="Path_9" data-name="Path 9" d="M157.929,425l-17.873,10.152a2.03,2.03,0,0,1-2.466.018l-.09.09.09.09a2.032,2.032,0,0,0,2.466-.018l18-10.224Z" transform="translate(-136.924 -404.069)" opacity="0.2"/>
    <path id="Path_10" data-name="Path 10" d="M134.876,411.874a2.462,2.462,0,0,1-.576-1.728v.18a2.462,2.462,0,0,0,.576,1.728l.09-.09ZM161.443,398.3l-6.138,3.492.108.108,6.03-3.42a2.158,2.158,0,0,0,1.3-1.782A2.268,2.268,0,0,1,161.443,398.3Z" transform="translate(-134.3 -380.863)" opacity="0.12"/>
    <path id="Path_11" data-name="Path 11" d="M137.432,309.306l24.011,13.644a2.315,2.315,0,0,1,1.3,1.6,2.158,2.158,0,0,0-1.3-1.782l-24.011-13.644c-1.728-.972-3.132-.162-3.132,1.8v.18C134.3,309.144,135.7,308.334,137.432,309.306Z" transform="translate(-134.3 -308.714)" fill="#fff" opacity="0.25"/>
  </g>
</svg>
