<svg xmlns="http://www.w3.org/2000/svg" width="233.438" height="220.837" viewBox="0 0 233.438 220.837">
  <g id="undraw_fresh_notification_re_whq4" transform="translate(0)">
    <path id="Path_28955" data-name="Path 28955" d="M718.126,541.936a2.676,2.676,0,0,0,2.684-.492l4.248-3.7a2.676,2.676,0,0,0,.258-3.772l-30.878-35.405a2.676,2.676,0,0,0-3.772-.258l-4.248,3.7a2.676,2.676,0,0,0-.258,3.772l30.878,35.406A2.659,2.659,0,0,0,718.126,541.936Z" transform="translate(-535.253 -368.543)" fill="#0080f9"/>
    <path id="Path_28956" data-name="Path 28956" d="M591.62,461.818a2.687,2.687,0,0,0,.819-.129,2.654,2.654,0,0,0,1.563-1.32l2.583-5.01a2.676,2.676,0,0,0-1.151-3.6L553.678,430.23a2.676,2.676,0,0,0-3.6,1.151l-2.583,5.01a2.676,2.676,0,0,0,1.151,3.6L590.4,461.52A2.656,2.656,0,0,0,591.62,461.818Z" transform="translate(-451.186 -327.384)" fill="#0080f9"/>
    <path id="Path_28957" data-name="Path 28957" d="M626.84,478.851a2.681,2.681,0,0,0,2.395-1.476l2.529-5.038a2.669,2.669,0,0,0,.207-1.837c-.017-.068-.036-.136-.059-.2h0c-.051-.154-.107-.394-.171-.672-.2-.886-.46-1.989-.98-2.25l-18.347-11.121a2.672,2.672,0,0,0-3.594,1.167l-.008.015-4.628,9.539a2.676,2.676,0,0,0,1.191,3.586l20.287,8.009a2.619,2.619,0,0,0,1.178.28Z" transform="translate(-485.652 -343.205)" fill="#2f2e41"/>
    <circle id="Ellipse_69" data-name="Ellipse 69" cx="20.439" cy="20.439" r="20.439" transform="translate(128.365 70.044)" fill="#0080f9"/>
    <path id="Path_28958" data-name="Path 28958" d="M687.83,647.827h5.637a2.676,2.676,0,0,0,2.673-2.673V597.411a2.676,2.676,0,0,0-2.673-2.673H687.83a2.676,2.676,0,0,0-2.673,2.673v47.743A2.676,2.676,0,0,0,687.83,647.827Z" transform="translate(-535.042 -427.557)" fill="#0080f9"/>
    <path id="Path_28959" data-name="Path 28959" d="M618.8,600.855a2.672,2.672,0,0,0,2.178-1.117L648.3,561.522a2.676,2.676,0,0,0-.62-3.73l-4.585-3.278a2.676,2.676,0,0,0-3.729.62l-27.324,38.215a2.676,2.676,0,0,0,.62,3.73l4.585,3.279A2.658,2.658,0,0,0,618.8,600.855Z" transform="translate(-490.301 -402.806)" fill="#0080f9"/>
    <path id="Path_28960" data-name="Path 28960" d="M625.784,677.861a3.68,3.68,0,0,0,1.615-.4l5.046-2.512c1.32-.657,2.047-1.888,1.621-2.743l-13-26.122c-.426-.855-1.845-1.017-3.165-.36l-5.046,2.512a3.56,3.56,0,0,0-1.447,1.257,1.511,1.511,0,0,0-.174,1.485l13,26.122A1.638,1.638,0,0,0,625.784,677.861Z" transform="translate(-490.033 -458.301)" fill="#0080f9"/>
    <path id="Path_28961" data-name="Path 28961" d="M686.895,511.158a2.681,2.681,0,0,0,2.8-.606l7.647-7.337a2.673,2.673,0,0,0,.031-3.78l0,0-16.253-14.052c-.4-.4-1.525-.307-2.431-.229-.284.025-.53.046-.692.044-.071,0-.142,0-.212.007h0a2.669,2.669,0,0,0-1.684.763l-4.014,3.957a2.677,2.677,0,0,0-.027,3.781L685.9,510.514A2.7,2.7,0,0,0,686.895,511.158Z" transform="translate(-526.613 -360.906)" fill="#2f2e41"/>
    <path id="Path_28962" data-name="Path 28962" d="M648.581,398.329l.021-.764a6.317,6.317,0,0,1-3.615-.816,2.348,2.348,0,0,1-.909-1.729,1.342,1.342,0,0,1,.44-1.105,2.313,2.313,0,0,1,2.363-.021l.632.29-1.212-8.856-.757.1,1.031,7.534a2.7,2.7,0,0,0-2.55.367,2.089,2.089,0,0,0-.71,1.716,3.105,3.105,0,0,0,1.222,2.319A7.029,7.029,0,0,0,648.581,398.329Z" transform="translate(-509.606 -300.271)" fill="#2f2e41"/>
    <rect id="Rectangle_1789" data-name="Rectangle 1789" width="4.114" height="0.764" transform="translate(128.083 85.809)" fill="#2f2e41"/>
    <rect id="Rectangle_1790" data-name="Rectangle 1790" width="4.114" height="0.764" transform="translate(141.067 85.809)" fill="#2f2e41"/>
    <path id="Path_28963" data-name="Path 28963" d="M609.234,538.475l22.3-64.261a8.45,8.45,0,0,1-1.2-4.752v-1.709c0-3.067,1.112-5.552,2.482-5.555h8.4c1.37,0,2.481,2.489,2.482,5.555v1.709a7.791,7.791,0,0,1-1.429,5.023L653.582,517.3a2.477,2.477,0,0,1-2.15,3.724L611.384,542.2a2.482,2.482,0,0,1-2.15-3.724Z" transform="translate(-488.692 -346.996)" fill="#2f2e41"/>
    <path id="Path_28964" data-name="Path 28964" d="M382.645,280.612a16.948,16.948,0,0,1-8.007-10.061,52.337,52.337,0,1,1,24.6-19.755,17.062,17.062,0,0,1-3.631,31.373A16.96,16.96,0,0,1,382.645,280.612Z" transform="translate(-302.984 -169.05)" fill="#fff"/>
    <path id="Path_28965" data-name="Path 28965" d="M391.813,283.543a12.663,12.663,0,0,1-5.515-7.469,4.258,4.258,0,0,0-5.657-2.814l-.26.1a47.631,47.631,0,1,1,22.1-17.744l-.155.23a4.259,4.259,0,0,0,1.526,6.134,12.748,12.748,0,0,1,6.319,7.7,12.359,12.359,0,0,1-1.893,10.582,12.151,12.151,0,0,1-5.607,4.294,12.494,12.494,0,0,1-4.413.81,12.329,12.329,0,0,1-6.445-1.824Z" transform="translate(-310.328 -176.423)" fill="#e5f2ff"/>
    <path id="Path_28966" data-name="Path 28966" d="M381.845,280.346a17.836,17.836,0,0,1-1.723-1.1,28.827,28.827,0,0,0-19.742-5.624,52.727,52.727,0,1,1,43.679-32.895,17.094,17.094,0,0,0,1.2,15.266,17.469,17.469,0,0,1-14.887,26.605h0A17.447,17.447,0,0,1,381.845,280.346Zm-69.529-87.967a51.552,51.552,0,0,0,61.628,76.756l.606-.238.176.627a16.278,16.278,0,1,0,23.348-18.747l-.574-.307.363-.54a51.552,51.552,0,1,0-85.548-57.551Z" transform="translate(-302.377 -168.442)" fill="#3f3d56"/>
    <path id="Path_28967" data-name="Path 28967" d="M668.46,327.128a3.976,3.976,0,0,0-3.653-2.084A13.023,13.023,0,0,0,659.4,326.5a12.189,12.189,0,0,1-5.577,1.182A10.211,10.211,0,0,1,648.958,326a9.422,9.422,0,0,1-4.248-8.711,9.8,9.8,0,0,1,5.437-8.057,10.1,10.1,0,0,1,10.912,1.713l-1,.416c-.418-4.173,1.852-8.141,5.035-10.688a25.751,25.751,0,0,1,11.866-4.929,26.351,26.351,0,0,1,12.945.974,25.655,25.655,0,0,1,9.27,5.766,26.5,26.5,0,0,1,8.023,20.62,29.324,29.324,0,0,1-3.152,11.567,30.2,30.2,0,0,1-7.379,9.189c-6.05,5.155-13.546,8.2-20.933,10.892q-1.379.5-2.762.993c-.714.255-1.022-.882-.313-1.134,7.126-2.542,14.381-5.182,20.6-9.587a31.866,31.866,0,0,0,7.924-7.846,28.074,28.074,0,0,0,4.413-10.655,25.278,25.278,0,0,0-13.14-27.431,23.77,23.77,0,0,0-11.373-2.556A27.741,27.741,0,0,0,668.8,299.65c-3.52,1.862-6.587,4.842-7.427,8.863a9.325,9.325,0,0,0-.137,2.844c.054.538-.663.734-1,.416a8.918,8.918,0,0,0-9.049-1.708,8.55,8.55,0,0,0-5.3,7.288,8.3,8.3,0,0,0,4.139,7.921,8.854,8.854,0,0,0,4.556,1.253,14.518,14.518,0,0,0,5.3-1.492,10.924,10.924,0,0,1,5.654-1.1,4.878,4.878,0,0,1,3.948,2.6c.31.684-.7,1.283-1.016.594Z" transform="translate(-510.436 -245.577)" fill="#2f2e41"/>
    <path id="Path_28968" data-name="Path 28968" d="M448.415,730.111H623.83a.467.467,0,0,0,0-.934H448.415a.467.467,0,1,0,0,.934Z" transform="translate(-390.859 -509.273)" fill="#3f3d56"/>
    <g id="Group_67616" data-name="Group 67616" transform="translate(33 31.978)">
      <g id="no_bell_alarm" transform="translate(1 1)">
        <g id="Group_67615" data-name="Group 67615">
          <g id="Group_67614" data-name="Group 67614" transform="translate(5.351 4.013)">
            <path id="Path_28969" data-name="Path 28969" d="M16.676,31.351A2.678,2.678,0,0,1,14,28.676V26h5.351v2.676A2.678,2.678,0,0,1,16.676,31.351Z" transform="translate(-1.96 3.431)" fill="#0080f9"/>
            <path id="Path_28970" data-name="Path 28970" d="M5,33.431v-.669a5.569,5.569,0,0,1,1.419-3.425l1.176-1.176a5.567,5.567,0,0,0,1.419-3.425V14.7a10.7,10.7,0,1,1,21.4,0V24.735a5.567,5.567,0,0,0,1.419,3.425l1.176,1.176a5.569,5.569,0,0,1,1.419,3.425v.669Z" transform="translate(-5 -4)" fill="#0080f9"/>
          </g>
          <path id="Path_28971" data-name="Path 28971" d="M26.417,33.106H7.785a4.344,4.344,0,0,1,.93-1.81l1.177-1.177a6.885,6.885,0,0,0,1.81-4.371V18.391a1.338,1.338,0,0,0-2.676,0v7.358A4.311,4.311,0,0,1,8,28.227L6.823,29.4a6.885,6.885,0,0,0-1.81,4.371v.669a1.338,1.338,0,0,0,1.338,1.338h10.7V37.12a4.013,4.013,0,1,0,8.027,0V35.782h1.338a1.338,1.338,0,1,0,0-2.676ZM22.4,37.12a1.338,1.338,0,1,1-2.676,0V35.782H22.4Zm18.337,1.73-3.79-3.79a1.306,1.306,0,0,0,.169-.615v-.669A6.885,6.885,0,0,0,35.31,29.4l-1.177-1.177a4.311,4.311,0,0,1-1.026-2.479V15.715A12.054,12.054,0,0,0,22.4,3.755V2.338a1.338,1.338,0,0,0-2.676,0V3.774a12.035,12.035,0,0,0-8.721,5.343L3.284,1.392A1.338,1.338,0,0,0,1.392,3.284L38.849,40.741a1.338,1.338,0,0,0,1.892-1.892ZM21.066,6.351a9.375,9.375,0,0,1,9.364,9.364V25.749a6.885,6.885,0,0,0,1.81,4.371L33.418,31.3a3.169,3.169,0,0,1,.513.743L12.963,11.071A9.353,9.353,0,0,1,21.066,6.351Z" transform="translate(-1 -1)" fill="#212121"/>
        </g>
      </g>
    </g>
  </g>
</svg>
